HIERARCHY
ROOT Hips
{
	OFFSET -0.179506 -22.333345 2.821913
	CHANNELS 6 Xposition Yposition Zposition Zrotation Yrotation Xrotation 
	JOINT LeftUpLeg
	{
		OFFSET 6.951974 -9.140623 -0.681533
		CHANNELS 3 Zrotation Yrotation Xrotation
		JOINT LeftLeg
		{
			OFFSET 3.427654 -37.519855 -0.449580
			CHANNELS 3 Zrotation Yrotation Xrotation
			JOINT LeftFoot
			{
				OFFSET -1.359570 -39.796059 -4.369333
				CHANNELS 3 Zrotation Yrotation Xrotation
				JOINT LeftToe
				{
					OFFSET 2.635814 -5.579078 11.928840
					CHANNELS 3 Zrotation Yrotation Xrotation
					End Site
					{
						OFFSET 0.000000 0.000000 0.000000
					}
				}
			}
		}
	}
	JOINT RightUpLeg
	{
		OFFSET -6.767048 -9.052170 -0.431982
		CHANNELS 3 Zrotation Yrotation Xrotation
		JOINT RightLeg
		{
			OFFSET -3.829005 -38.256897 -0.885003
			CHANNELS 3 Zrotation Yrotation Xrotation
			JOINT RightFoot
			{
				OFFSET 1.577377 -39.841461 -4.231180
				CHANNELS 3 Zrotation Yrotation Xrotation
				JOINT RightToe
				{
					OFFSET -2.537174 -4.814398 12.334795
					CHANNELS 3 Zrotation Yrotation Xrotation
					End Site
					{
						OFFSET 0.000000 0.000000 0.000000
					}
				}
			}
		}
	}
	JOINT Spine
	{
		OFFSET -0.253288 10.896323 -2.669631
		CHANNELS 3 Zrotation Yrotation Xrotation
		JOINT Spine1
		{
			OFFSET 0.548704 13.518043 0.109247
			CHANNELS 3 Zrotation Yrotation Xrotation
			JOINT Spine2
			{
				OFFSET 0.145701 5.292222 2.542457
				CHANNELS 3 Zrotation Yrotation Xrotation
				JOINT Neck
				{
					OFFSET -0.277840 21.387037 -4.285703
					CHANNELS 3 Zrotation Yrotation Xrotation
					JOINT Head
					{
						OFFSET 0.515184 6.496960 5.134897
						CHANNELS 3 Zrotation Yrotation Xrotation
						End Site
						{
							OFFSET 0.000000 0.000000 0.000000
						}
					}
				}
				JOINT LeftShoulder
				{
					OFFSET 7.884473 12.174932 -3.408961
					CHANNELS 3 Zrotation Yrotation Xrotation
					JOINT LeftArm
					{
						OFFSET 9.097692 3.046888 -0.886815
						CHANNELS 3 Zrotation Yrotation Xrotation
						JOINT LeftForeArm
						{
							OFFSET 25.961220 -1.277207 -2.745643
							CHANNELS 3 Zrotation Yrotation Xrotation
							JOINT LeftHand
							{
								OFFSET 24.923361 0.898606 -0.117091
								CHANNELS 3 Zrotation Yrotation Xrotation
								End Site
								{
									OFFSET 0.000000 0.000000 0.000000
								}
							}
						}
					}
				}
				JOINT RightShoulder
				{
					OFFSET -8.175920 11.883285 -3.861528
					CHANNELS 3 Zrotation Yrotation Xrotation
					JOINT RightArm
					{
						OFFSET -9.601238 3.255117 -0.914307
						CHANNELS 3 Zrotation Yrotation Xrotation
						JOINT RightForeArm
						{
							OFFSET -25.374195 -1.332924 -2.140099
							CHANNELS 3 Zrotation Yrotation Xrotation
							JOINT RightHand
							{
								OFFSET -25.529810 0.777228 -0.555919
								CHANNELS 3 Zrotation Yrotation Xrotation
								End Site
								{
									OFFSET 0.000000 0.000000 0.000000
								}
							}
						}
					}
				}
			}
		}
	}
}
MOTION
Frames: 7
Frame Time: 0.033333
310.319977 -313.205078 90.243706 -130.895146 1.336947 88.707648 0.423618 3.505532 6.096232 -2.009247 -6.729038 4.735340 4.860385 14.851717 -18.145527 nan nan nan -1.322661 -0.811947 -15.024380 1.798669 -2.915234 30.439867 2.091293 -8.055023 -15.818292 nan nan nan -1.358193 -0.983398 11.809719 4.061333 -2.229692 4.392609 0.853744 -1.327662 -4.889901 0.311306 -12.077766 -0.282070 3.895055 -10.997561 3.789358 -25.774919 -1.059638 -0.780527 -51.315087 -5.888426 16.793936 5.066628 -29.843085 -0.392271 -2.078834 -10.120070 1.296517 28.053178 3.309565 -0.717697 53.014838 -4.564923 12.749422 -12.335729 20.288957 -8.296858 7.245809 10.008103 -4.316088 
310.330414 -313.441406 90.228790 -131.052687 1.152123 88.841010 0.037799 3.279705 5.987436 -1.959418 -6.446048 4.557165 5.143069 14.936240 -18.163964 nan nan nan -1.501971 -0.584149 -14.929913 1.822687 -2.909393 30.968033 2.116208 -7.776952 -15.888507 nan nan nan -1.546890 -0.837862 11.297243 4.137331 -2.322725 4.911548 0.826945 -1.371497 -5.139160 0.123471 -11.704392 -0.152317 4.021397 -11.221369 3.540646 -25.941066 -0.945960 -0.813290 -51.075502 -5.774800 16.487987 4.431007 -30.409998 -0.381054 -5.102883 -11.975763 1.491503 28.447747 3.508185 -0.837545 52.393436 -4.310564 12.482150 -12.733656 20.997751 -8.611088 8.770305 11.341480 -3.382070 
310.375549 -313.692657 90.235794 -131.072619 1.089498 88.914164 -0.199676 3.153335 5.802643 -1.911144 -6.405976 4.540584 5.279268 14.999128 -17.991152 nan nan nan -1.422662 -0.295954 -15.109491 1.710938 -2.805179 32.088892 2.108466 -7.655868 -15.836417 nan nan nan -1.623032 -0.877326 11.136495 4.166389 -2.415042 4.975266 0.765285 -1.326372 -5.279156 -0.001987 -11.624883 0.139453 4.061819 -11.115486 3.496311 -25.934704 -0.921170 -0.913980 -51.244452 -5.654719 16.475560 4.192822 -30.246936 -0.968205 -5.499996 -12.204770 1.114065 28.496335 3.599924 -0.893916 52.335419 -4.179762 12.479810 -12.929876 21.388982 -9.138338 9.024202 11.769785 -3.559683 
310.285797 -313.877136 90.065453 -130.958390 0.815093 88.948076 -0.789598 3.143026 5.738577 -1.592912 -6.509006 4.359879 5.022238 14.901957 -18.129168 nan nan nan -1.179113 0.316505 -13.209310 0.522863 -1.747824 26.539082 1.839119 -7.234020 -18.195543 nan nan nan -1.894947 -0.634495 10.715354 4.071139 -2.707536 5.129371 0.930299 -1.407206 -5.204543 -0.383945 -11.743616 0.382155 4.298281 -10.811113 3.404530 -25.712458 -0.719031 -1.326598 -51.550460 -5.306126 16.756256 4.591108 -30.282869 -0.497367 -6.664957 -12.209539 1.899506 28.301952 3.469964 -1.185258 52.733206 -4.097744 12.458907 -13.084769 21.897322 -8.866512 9.813997 12.034065 -2.453328 
310.303467 -314.044128 90.136566 -130.674148 1.137197 88.788535 -0.448366 3.034760 5.809502 -1.689951 -6.548335 4.348118 5.170852 14.774839 -17.969979 nan nan nan -1.103978 -0.014485 -13.497575 1.380207 -2.166080 30.333433 1.811000 -6.847624 -17.762574 nan nan nan -1.613288 -0.804748 10.938375 4.220258 -2.731039 4.956334 0.918384 -1.510946 -5.345616 -0.270534 -11.598871 0.333605 3.929348 -10.691780 3.826107 -26.226354 -0.886514 -1.180195 -51.300090 -5.058805 16.485483 4.356437 -30.277430 -0.756010 -5.742024 -11.864449 1.196395 28.694431 3.519693 -1.216061 52.231529 -3.922354 12.658424 -12.715783 22.477292 -8.689977 9.421150 11.931690 -2.667500 
309.938965 -313.980286 90.121513 -128.999779 1.233605 88.058311 -0.187870 2.769540 6.819900 -1.809149 -6.945460 4.281540 5.017768 14.026854 -18.214116 nan nan nan -1.405496 -1.036296 -11.177727 2.045320 -2.868162 30.169582 2.000982 -6.657944 -17.239127 nan nan nan -0.894207 -0.913265 10.909648 3.994012 -3.290420 4.751613 0.760432 -2.446896 -4.712679 -0.235341 -11.356947 0.748342 3.662800 -11.093356 3.556620 -26.206247 -1.128121 -0.312074 -51.003105 -5.017101 15.640348 4.172085 -30.974561 0.914490 -6.274673 -12.014602 1.116308 28.894707 3.238256 -1.297463 52.085862 -3.606909 12.335621 -12.438674 23.706391 -7.532104 9.678324 12.050016 -2.418494 
309.923950 -314.120605 90.104385 -128.839442 1.163202 88.210626 -0.331435 2.471770 6.608243 -1.845397 -6.639072 4.395240 5.001034 13.924640 -18.302683 nan nan nan -1.452876 -1.045247 -10.662760 2.180023 -2.894347 29.731700 2.198462 -6.320556 -16.615220 nan nan nan -1.185725 -0.822855 10.101430 4.218377 -3.620522 5.597044 0.780704 -2.547385 -4.811963 -0.057560 -10.598811 0.677913 3.636334 -11.521716 3.363676 -26.309500 -1.131020 -0.632413 -51.038628 -4.822384 14.628282 3.565944 -30.686773 1.228599 -8.170369 -12.748116 3.402805 29.767068 3.478865 -1.159126 51.107924 -3.369285 13.526861 -10.268083 25.769236 0.459555 11.918432 12.159163 8.265825 
